<mxfile host="app.diagrams.net" modified="2022-08-26T06:23:22.100Z" agent="5.0 (Macintosh; Intel Mac OS X 10_15_7) AppleWebKit/537.36 (KHTML, like Gecko) Chrome/104.0.0.0 Safari/537.36" etag="p_04fiW6x2IhNofksESx" version="20.2.4" type="github">
  <diagram id="c2FVRoN_8Z9HTurI5afC" name="第 1 页">
    <mxGraphModel dx="1051" dy="1851" grid="1" gridSize="10" guides="1" tooltips="1" connect="1" arrows="1" fold="1" page="1" pageScale="1" pageWidth="827" pageHeight="1169" background="#F4F1DE" math="0" shadow="0">
      <root>
        <mxCell id="0" />
        <mxCell id="1" parent="0" />
        <mxCell id="L_hdj1qBmgPDhR9yNJKh-1" value="&lt;font style=&quot;font-size: 14px;&quot;&gt;Flex布局&lt;/font&gt;" style="rounded=1;whiteSpace=wrap;html=1;fillColor=#F2CC8F;strokeColor=#E07A5F;fontColor=#393C56;" vertex="1" parent="1">
          <mxGeometry x="40" y="235" width="90" height="40" as="geometry" />
        </mxCell>
        <mxCell id="L_hdj1qBmgPDhR9yNJKh-2" value="" style="shape=curlyBracket;whiteSpace=wrap;html=1;rounded=1;fontColor=#393C56;strokeColor=#E07A5F;fillColor=#F2CC8F;" vertex="1" parent="1">
          <mxGeometry x="140" y="60" width="20" height="390" as="geometry" />
        </mxCell>
        <mxCell id="L_hdj1qBmgPDhR9yNJKh-3" value="&lt;font style=&quot;font-size: 14px;&quot;&gt;容器属性&lt;/font&gt;" style="rounded=1;whiteSpace=wrap;html=1;fontColor=#393C56;strokeColor=#E07A5F;fillColor=#F2CC8F;" vertex="1" parent="1">
          <mxGeometry x="180" y="90" width="120" height="60" as="geometry" />
        </mxCell>
        <mxCell id="L_hdj1qBmgPDhR9yNJKh-4" value="容器成员属性" style="rounded=1;whiteSpace=wrap;html=1;fontSize=14;fontColor=#393C56;strokeColor=#E07A5F;fillColor=#F2CC8F;" vertex="1" parent="1">
          <mxGeometry x="180" y="370" width="120" height="60" as="geometry" />
        </mxCell>
        <mxCell id="L_hdj1qBmgPDhR9yNJKh-5" value="" style="shape=curlyBracket;whiteSpace=wrap;html=1;rounded=1;fontSize=14;fontColor=#393C56;strokeColor=#E07A5F;fillColor=#F2CC8F;" vertex="1" parent="1">
          <mxGeometry x="310" y="-30" width="20" height="290" as="geometry" />
        </mxCell>
        <mxCell id="L_hdj1qBmgPDhR9yNJKh-7" value="&lt;ul style=&quot;line-height: 2.6;&quot;&gt;&lt;li style=&quot;margin-bottom: 0px;&quot;&gt;&lt;font style=&quot;font-size: 18px;&quot;&gt;flex-direction&lt;/font&gt;&lt;/li&gt;&lt;li style=&quot;margin-bottom: 0px;&quot;&gt;&lt;font size=&quot;3&quot;&gt;flex-wrap&lt;/font&gt;&lt;/li&gt;&lt;li style=&quot;margin-bottom: 0px;&quot;&gt;&lt;font size=&quot;3&quot;&gt;flex-flow&lt;/font&gt;&lt;/li&gt;&lt;li style=&quot;margin-bottom: 0px;&quot;&gt;&lt;font size=&quot;3&quot;&gt;justify-content&lt;/font&gt;&lt;/li&gt;&lt;li style=&quot;margin-bottom: 0px;&quot;&gt;&lt;font size=&quot;3&quot;&gt;align-items&lt;/font&gt;&lt;/li&gt;&lt;li style=&quot;margin-bottom: 0px;&quot;&gt;&lt;font size=&quot;3&quot;&gt;align-content&lt;/font&gt;&lt;/li&gt;&lt;/ul&gt;" style="text;strokeColor=none;fillColor=none;html=1;whiteSpace=wrap;verticalAlign=middle;overflow=hidden;fontSize=14;fontColor=#393C56;" vertex="1" parent="1">
          <mxGeometry x="330" y="-60" width="250" height="360" as="geometry" />
        </mxCell>
        <mxCell id="L_hdj1qBmgPDhR9yNJKh-9" value="" style="shape=image;html=1;verticalLabelPosition=bottom;verticalAlign=top;imageAspect=0;image=img/clipart/Gear_128x128.png;fontSize=18;fontColor=#393C56;strokeColor=#E07A5F;fillColor=#F2CC8F;" vertex="1" parent="1">
          <mxGeometry x="340" y="-10" width="30" height="30" as="geometry" />
        </mxCell>
        <mxCell id="L_hdj1qBmgPDhR9yNJKh-10" value="" style="shape=image;html=1;verticalLabelPosition=bottom;verticalAlign=top;imageAspect=0;image=img/clipart/Gear_128x128.png;fontSize=18;fontColor=#393C56;strokeColor=#E07A5F;fillColor=#F2CC8F;" vertex="1" parent="1">
          <mxGeometry x="340" y="40" width="30" height="30" as="geometry" />
        </mxCell>
        <mxCell id="L_hdj1qBmgPDhR9yNJKh-11" value="" style="shape=image;html=1;verticalLabelPosition=bottom;verticalAlign=top;imageAspect=0;image=img/clipart/Gear_128x128.png;fontSize=18;fontColor=#393C56;strokeColor=#E07A5F;fillColor=#F2CC8F;" vertex="1" parent="1">
          <mxGeometry x="340" y="80" width="30" height="30" as="geometry" />
        </mxCell>
        <mxCell id="L_hdj1qBmgPDhR9yNJKh-12" value="" style="shape=image;html=1;verticalLabelPosition=bottom;verticalAlign=top;imageAspect=0;image=img/clipart/Gear_128x128.png;fontSize=18;fontColor=#393C56;strokeColor=#E07A5F;fillColor=#F2CC8F;" vertex="1" parent="1">
          <mxGeometry x="340" y="130" width="30" height="30" as="geometry" />
        </mxCell>
        <mxCell id="L_hdj1qBmgPDhR9yNJKh-13" value="" style="shape=image;html=1;verticalLabelPosition=bottom;verticalAlign=top;imageAspect=0;image=img/clipart/Gear_128x128.png;fontSize=18;fontColor=#393C56;strokeColor=#E07A5F;fillColor=#F2CC8F;" vertex="1" parent="1">
          <mxGeometry x="340" y="170" width="30" height="30" as="geometry" />
        </mxCell>
        <mxCell id="L_hdj1qBmgPDhR9yNJKh-14" value="" style="shape=image;html=1;verticalLabelPosition=bottom;verticalAlign=top;imageAspect=0;image=img/clipart/Gear_128x128.png;fontSize=18;fontColor=#393C56;strokeColor=#E07A5F;fillColor=#F2CC8F;" vertex="1" parent="1">
          <mxGeometry x="340" y="220" width="30" height="30" as="geometry" />
        </mxCell>
        <mxCell id="L_hdj1qBmgPDhR9yNJKh-15" value="&lt;font style=&quot;font-size: 14px;&quot;&gt;主轴方向&lt;/font&gt;" style="text;html=1;strokeColor=none;fillColor=none;align=center;verticalAlign=middle;whiteSpace=wrap;rounded=0;fontSize=18;fontColor=#393C56;" vertex="1" parent="1">
          <mxGeometry x="490" width="120" height="20" as="geometry" />
        </mxCell>
        <mxCell id="L_hdj1qBmgPDhR9yNJKh-16" value="&lt;font style=&quot;font-size: 14px;&quot;&gt;容器内项目是否可换行&lt;/font&gt;" style="text;html=1;strokeColor=none;fillColor=none;align=center;verticalAlign=middle;whiteSpace=wrap;rounded=0;fontSize=18;fontColor=#393C56;" vertex="1" parent="1">
          <mxGeometry x="490" y="42.5" width="160" height="25" as="geometry" />
        </mxCell>
        <mxCell id="L_hdj1qBmgPDhR9yNJKh-17" value="&lt;font style=&quot;font-size: 14px;&quot;&gt;flex-direction + flex-wrap&lt;/font&gt;" style="text;html=1;strokeColor=none;fillColor=none;align=center;verticalAlign=middle;whiteSpace=wrap;rounded=0;fontSize=18;fontColor=#393C56;" vertex="1" parent="1">
          <mxGeometry x="455" y="90" width="230" height="20" as="geometry" />
        </mxCell>
        <mxCell id="L_hdj1qBmgPDhR9yNJKh-18" value="&lt;font style=&quot;font-size: 14px;&quot;&gt;项目在主轴上的对齐方式&lt;/font&gt;" style="text;html=1;strokeColor=none;fillColor=none;align=center;verticalAlign=middle;whiteSpace=wrap;rounded=0;fontSize=18;fontColor=#393C56;" vertex="1" parent="1">
          <mxGeometry x="470" y="135" width="200" height="20" as="geometry" />
        </mxCell>
        <mxCell id="L_hdj1qBmgPDhR9yNJKh-19" value="&lt;font style=&quot;font-size: 14px;&quot;&gt;项目在交叉轴上的对齐方式&lt;/font&gt;" style="text;html=1;strokeColor=none;fillColor=none;align=center;verticalAlign=middle;whiteSpace=wrap;rounded=0;fontSize=18;fontColor=#393C56;" vertex="1" parent="1">
          <mxGeometry x="480" y="180" width="200" height="20" as="geometry" />
        </mxCell>
        <mxCell id="L_hdj1qBmgPDhR9yNJKh-20" value="&lt;span style=&quot;font-size: 14px;&quot;&gt;定义多根轴线的对齐方式&lt;/span&gt;" style="text;html=1;strokeColor=none;fillColor=none;align=center;verticalAlign=middle;whiteSpace=wrap;rounded=0;fontSize=18;fontColor=#393C56;" vertex="1" parent="1">
          <mxGeometry x="480" y="225" width="200" height="20" as="geometry" />
        </mxCell>
        <mxCell id="L_hdj1qBmgPDhR9yNJKh-22" value="" style="shape=curlyBracket;whiteSpace=wrap;html=1;rounded=1;fontSize=14;fontColor=#393C56;strokeColor=#E07A5F;fillColor=#F2CC8F;" vertex="1" parent="1">
          <mxGeometry x="310" y="300" width="20" height="220" as="geometry" />
        </mxCell>
        <mxCell id="L_hdj1qBmgPDhR9yNJKh-23" value="&lt;ul style=&quot;line-height: 2.6;&quot;&gt;&lt;li style=&quot;margin-bottom: 0px;&quot;&gt;&lt;span style=&quot;font-size: 18px;&quot;&gt;order&lt;/span&gt;&lt;/li&gt;&lt;li style=&quot;margin-bottom: 0px;&quot;&gt;&lt;font size=&quot;3&quot;&gt;flex-grow&lt;/font&gt;&lt;/li&gt;&lt;li style=&quot;margin-bottom: 0px;&quot;&gt;&lt;font size=&quot;3&quot;&gt;flex-shrink&lt;/font&gt;&lt;/li&gt;&lt;li style=&quot;margin-bottom: 0px;&quot;&gt;&lt;font size=&quot;3&quot;&gt;flex-basis&lt;/font&gt;&lt;/li&gt;&lt;li style=&quot;margin-bottom: 0px;&quot;&gt;&lt;font size=&quot;3&quot;&gt;align-self&lt;/font&gt;&lt;/li&gt;&lt;/ul&gt;" style="text;strokeColor=none;fillColor=none;html=1;whiteSpace=wrap;verticalAlign=middle;overflow=hidden;fontSize=14;fontColor=#393C56;" vertex="1" parent="1">
          <mxGeometry x="340" y="245" width="250" height="360" as="geometry" />
        </mxCell>
        <mxCell id="L_hdj1qBmgPDhR9yNJKh-25" value="" style="shape=image;html=1;verticalLabelPosition=bottom;verticalAlign=top;imageAspect=1;aspect=fixed;image=img/clipart/Gear_128x128.png;fontSize=14;fontColor=#393C56;strokeColor=#E07A5F;fillColor=#F2CC8F;" vertex="1" parent="1">
          <mxGeometry x="351.47" y="412" width="26.43" height="31" as="geometry" />
        </mxCell>
        <mxCell id="L_hdj1qBmgPDhR9yNJKh-26" value="" style="shape=image;html=1;verticalLabelPosition=bottom;verticalAlign=top;imageAspect=1;aspect=fixed;image=img/clipart/Gear_128x128.png;fontSize=14;fontColor=#393C56;strokeColor=#E07A5F;fillColor=#F2CC8F;" vertex="1" parent="1">
          <mxGeometry x="350" y="459" width="24.95" height="29.27" as="geometry" />
        </mxCell>
        <mxCell id="L_hdj1qBmgPDhR9yNJKh-27" value="" style="shape=image;html=1;verticalLabelPosition=bottom;verticalAlign=top;imageAspect=1;aspect=fixed;image=img/clipart/Gear_128x128.png;fontSize=14;fontColor=#393C56;strokeColor=#E07A5F;fillColor=#F2CC8F;" vertex="1" parent="1">
          <mxGeometry x="350.95" y="501" width="25.58" height="30" as="geometry" />
        </mxCell>
        <mxCell id="L_hdj1qBmgPDhR9yNJKh-28" value="" style="shape=image;html=1;verticalLabelPosition=bottom;verticalAlign=top;imageAspect=1;aspect=fixed;image=img/clipart/Gear_128x128.png;fontSize=14;fontColor=#393C56;strokeColor=#E07A5F;fillColor=#F2CC8F;" vertex="1" parent="1">
          <mxGeometry x="348.52000000000004" y="370" width="26.43" height="31" as="geometry" />
        </mxCell>
        <mxCell id="L_hdj1qBmgPDhR9yNJKh-29" value="" style="shape=image;html=1;verticalLabelPosition=bottom;verticalAlign=top;imageAspect=1;aspect=fixed;image=img/clipart/Gear_128x128.png;fontSize=14;fontColor=#393C56;strokeColor=#E07A5F;fillColor=#F2CC8F;" vertex="1" parent="1">
          <mxGeometry x="349.26000000000005" y="326" width="26.43" height="31" as="geometry" />
        </mxCell>
        <mxCell id="L_hdj1qBmgPDhR9yNJKh-30" value="&lt;span style=&quot;caret-color: rgb(0, 0, 0); color: rgb(0, 0, 0); font-family: -apple-system-font, &amp;quot;Helvetica Neue&amp;quot;, sans-serif; font-size: 14px; font-style: normal; font-variant-caps: normal; font-weight: 400; letter-spacing: normal; text-align: start; text-indent: 0px; text-transform: none; word-spacing: 0px; text-size-adjust: auto; -webkit-text-stroke-width: 0px; text-decoration: none; float: none; display: inline !important;&quot;&gt;定义项目的排列顺序&lt;/span&gt;" style="text;html=1;strokeColor=none;fillColor=none;align=center;verticalAlign=middle;whiteSpace=wrap;rounded=0;fontSize=14;fontColor=#393C56;" vertex="1" parent="1">
          <mxGeometry x="461" y="310.5" width="190" height="50" as="geometry" />
        </mxCell>
        <mxCell id="L_hdj1qBmgPDhR9yNJKh-31" value="&lt;div style=&quot;text-align: start;&quot;&gt;&lt;span style=&quot;background-color: initial; caret-color: rgb(0, 0, 0);&quot;&gt;&lt;font face=&quot;-apple-system-font, Helvetica Neue, sans-serif&quot; color=&quot;#000000&quot;&gt;放大的比例&lt;/font&gt;&lt;/span&gt;&lt;/div&gt;" style="text;html=1;strokeColor=none;fillColor=none;align=center;verticalAlign=middle;whiteSpace=wrap;rounded=0;fontSize=14;fontColor=#393C56;" vertex="1" parent="1">
          <mxGeometry x="460" y="357" width="190" height="50" as="geometry" />
        </mxCell>
        <mxCell id="L_hdj1qBmgPDhR9yNJKh-32" value="&lt;span style=&quot;caret-color: rgb(0, 0, 0); color: rgb(0, 0, 0); font-family: -apple-system-font, &amp;quot;Helvetica Neue&amp;quot;, sans-serif; font-size: 14px; font-style: normal; font-variant-caps: normal; font-weight: 400; letter-spacing: normal; text-align: start; text-indent: 0px; text-transform: none; word-spacing: 0px; text-size-adjust: auto; -webkit-text-stroke-width: 0px; text-decoration: none; float: none; display: inline !important;&quot;&gt;缩小的比例&lt;/span&gt;" style="text;html=1;strokeColor=none;fillColor=none;align=center;verticalAlign=middle;whiteSpace=wrap;rounded=0;fontSize=14;fontColor=#393C56;" vertex="1" parent="1">
          <mxGeometry x="461" y="402.5" width="190" height="50" as="geometry" />
        </mxCell>
        <mxCell id="L_hdj1qBmgPDhR9yNJKh-33" value="&lt;span style=&quot;caret-color: rgb(0, 0, 0); color: rgb(0, 0, 0); font-family: -apple-system-font, &amp;quot;Helvetica Neue&amp;quot;, sans-serif; font-size: 14px; font-style: normal; font-variant-caps: normal; font-weight: 400; letter-spacing: normal; text-align: start; text-indent: 0px; text-transform: none; word-spacing: 0px; text-size-adjust: auto; -webkit-text-stroke-width: 0px; text-decoration: none; float: none; display: inline !important;&quot;&gt;剩余空间的分配方式&lt;/span&gt;" style="text;html=1;strokeColor=none;fillColor=none;align=center;verticalAlign=middle;whiteSpace=wrap;rounded=0;fontSize=14;fontColor=#393C56;" vertex="1" parent="1">
          <mxGeometry x="461" y="448.63" width="190" height="50" as="geometry" />
        </mxCell>
        <mxCell id="L_hdj1qBmgPDhR9yNJKh-34" value="&lt;span style=&quot;caret-color: rgb(0, 0, 0); color: rgb(0, 0, 0); font-family: -apple-system-font, &amp;quot;Helvetica Neue&amp;quot;, sans-serif; text-align: start; text-size-adjust: auto;&quot;&gt;允许单个项目有与其他项目不一样的对齐方式&lt;br&gt;覆盖的是父元素的align-items属性&lt;br&gt;&lt;/span&gt;" style="text;html=1;strokeColor=none;fillColor=none;align=center;verticalAlign=middle;whiteSpace=wrap;rounded=0;fontSize=14;fontColor=#393C56;" vertex="1" parent="1">
          <mxGeometry x="460" y="501" width="319" height="49" as="geometry" />
        </mxCell>
      </root>
    </mxGraphModel>
  </diagram>
</mxfile>
